<svg xmlns="http://www.w3.org/2000/svg" width="90" height="97" fill="none" viewBox="0 0 90 97"><path fill="#000" fill-rule="evenodd" d="M7 21C7 11.611 24.013 4 45 4s38 7.611 38 17l-.226-.17c.097.622.146 1.254.146 1.895 0 .976-.163 1.92-.488 2.832a7.171 7.171 0 0 1-1.416 2.343c-.619.651-1.384 1.189-2.295 1.612-.912.39-1.953.586-3.125.586-1.075 0-2.051-.18-2.93-.537a7.283 7.283 0 0 1-2.295-1.465 6.84 6.84 0 0 1-1.465-2.198c-.325-.846-.488-1.774-.488-2.783 0-1.14.195-2.148.586-3.027.39-.912.911-1.66 1.562-2.246a6.47 6.47 0 0 1 2.393-1.367 8.647 8.647 0 0 1 2.93-.489v-.195c-.196-.228-.586-.586-1.172-1.074-.586-.521-1.4-1.026-2.442-1.514-1.041-.52-2.327-.96-3.857-1.318-1.53-.39-3.337-.586-5.42-.586-2.344 0-4.41.277-6.201.83-1.758.553-3.24 1.335-4.444 2.344-.351.294-.678.607-.98.938v14.59c1.072 1.19 2.604 2.426 4.594 3.71 2.05 1.302 4.801 2.702 8.252 4.2 3.971 1.822 7.324 3.531 10.058 5.126 2.767 1.595 5.013 3.288 6.739 5.078 1.725 1.79 2.962 3.809 3.71 6.055.782 2.213 1.172 4.866 1.172 7.959 0 2.344-.472 4.687-1.416 7.031-.944 2.344-2.376 4.444-4.296 6.299-1.889 1.855-4.281 3.37-7.178 4.541-2.865 1.14-6.234 1.709-10.108 1.709-4.297 0-7.91-.407-10.84-1.22-.825-.22-1.605-.46-2.34-.719-.95 3.065-2.109 5.436-3.474 7.11a17.18 17.18 0 0 1-5.078 4.249c-1.92 1.107-3.646 1.806-5.176 2.1a23.84 23.84 0 0 1-4.59.439c-3.483 0-6.429-.83-8.838-2.49C20.188 89.518 19 87.19 19 84.195c0-1.195.244-2.292.731-3.292a21.704 21.704 0 0 1-2.84-.903c-2.897-1.172-5.29-2.686-7.178-4.541-1.92-1.856-3.353-3.955-4.297-6.299C4.472 66.816 4 64.473 4 62.13c0-3.093.39-5.745 1.172-7.96.749-2.245 1.986-4.263 3.71-6.054 1.726-1.79 3.972-3.483 6.74-5.078 2.733-1.595 6.086-3.304 10.058-5.127 3.45-1.497 6.2-2.897 8.252-4.2 2.018-1.301 3.564-2.554 4.638-3.759.105-.12.206-.24.303-.36V15.814c-.394-.482-.837-.93-1.328-1.341-1.205-1.01-2.686-1.79-4.443-2.344-1.79-.553-3.858-.83-6.202-.83-2.083 0-3.89.195-5.42.586-1.53.358-2.815.797-3.857 1.318-1.042.488-1.855.993-2.441 1.514-.586.488-.977.846-1.172 1.074v.195c1.041 0 2.018.163 2.93.489a6.471 6.471 0 0 1 2.392 1.367c.651.586 1.172 1.334 1.563 2.246.39.879.585 1.888.585 3.027 0 1.01-.162 1.937-.488 2.783a6.84 6.84 0 0 1-1.465 2.198 7.283 7.283 0 0 1-2.295 1.465c-.878.358-1.855.537-2.93.537-1.171 0-2.213-.196-3.124-.586-.912-.424-1.677-.96-2.295-1.612a7.172 7.172 0 0 1-1.416-2.343 8.357 8.357 0 0 1-.488-2.832c0-.623.045-1.237.137-1.841L7 21zm25.71 28.873c2.36-1 4.414-2.072 6.163-3.212v31.626c0 1.986-.114 3.727-.342 5.225-.195 1.497-.488 2.685-.879 3.564-.39.912-.797 1.644-1.22 2.197-.391.554-.88.944-1.465 1.172-.586.228-1.074.375-1.465.44a7.527 7.527 0 0 1-1.318.097c-1.498 0-2.458-.309-2.881-.927l-.147-.196c1.14-.586 2.035-1.497 2.686-2.734.683-1.237 1.025-2.393 1.025-3.467 0-1.855-.602-3.434-1.806-4.736-1.205-1.302-2.898-1.953-5.079-1.953-1.537 0-2.864.402-3.98 1.207-1.927-.52-3.63-1.263-5.111-2.229-1.53-.976-2.767-2.164-3.711-3.564s-1.416-2.979-1.416-4.736c0-1.498.276-2.898.83-4.2.553-1.302 1.595-2.62 3.125-3.955 1.53-1.367 3.662-2.816 6.396-4.345 2.702-1.563 6.234-3.32 10.596-5.274zm18.663-2.989v21.003c0 3.319-.292 6.317-.876 8.995.29.128.6.256.929.384 1.204.455 2.67.862 4.394 1.22 1.758.326 3.825.489 6.202.489 1.953 0 3.89-.26 5.81-.782 1.953-.52 3.678-1.27 5.176-2.246 1.53-.976 2.767-2.164 3.71-3.564.945-1.4 1.417-2.979 1.417-4.736 0-1.498-.277-2.898-.83-4.2-.554-1.302-1.595-2.62-3.125-3.955-1.53-1.367-3.662-2.816-6.397-4.345-2.702-1.563-6.233-3.32-10.596-5.274-2.204-.935-4.142-1.932-5.814-2.989z" clip-rule="evenodd"/></svg>