<svg xmlns="http://www.w3.org/2000/svg" width="32" height="32" fill="none" viewBox="0 0 32 32"><path fill="#000" d="M28.427 19.856a13.81 13.81 0 0 0-1.195-10.7c-1.833-3.292-4.855-5.682-8.51-6.731a14.301 14.301 0 0 0-2.014-.411c-.51-.07-1.02.134-1.335.538a1.4 1.4 0 0 0-.186 1.41 11.79 11.79 0 0 1-1.634 11.975c-2.399 3.01-6.156 4.698-10.053 4.518a1.439 1.439 0 0 0-1.278.657c-.275.43-.296.972-.054 1.42a14.108 14.108 0 0 0 3.767 4.462 14.268 14.268 0 0 0 4.83 2.44 14.325 14.325 0 0 0 10.84-1.179c3.337-1.809 5.76-4.791 6.822-8.4zm-16.863 6.862a11.28 11.28 0 0 1-5.525-3.55c3.825-.502 7.352-2.451 9.767-5.481A14.592 14.592 0 0 0 18.64 5.373a11.26 11.26 0 0 1 6.08 5.146 11.032 11.032 0 0 1 .955 8.547c-1.752 5.949-8.082 9.381-14.11 7.652z"/></svg>