<svg xmlns="http://www.w3.org/2000/svg" width="32" height="32" fill="none" viewBox="0 0 32 32"><path fill="#000" d="M10.933 6.63a1.12 1.12 0 1 0 2.08-.84l-.97-2.4a1.121 1.121 0 0 0-2.079.839l.97 2.4zm-7.507 5.462l2.382 1.012a1.116 1.116 0 0 0 1.47-.593 1.121 1.121 0 0 0-.593-1.47L4.302 10.03a1.12 1.12 0 0 0-.876 2.063zm2.498 7.136l-2.401.97a1.121 1.121 0 0 0 .839 2.078l2.4-.97a1.121 1.121 0 0 0-.838-2.078zm6.72 5.734a1.12 1.12 0 0 0-1.47.593l-1.012 2.383a1.12 1.12 0 0 0 2.063.877l1.012-2.383a1.12 1.12 0 0 0-.593-1.47zm8.796.515a1.12 1.12 0 1 0-2.079.84l.97 2.4a1.12 1.12 0 1 0 2.078-.84l-.969-2.4zm7.508-5.462l-2.383-1.013a1.12 1.12 0 1 0-.876 2.063l2.382 1.013a1.121 1.121 0 0 0 .876-2.063zM26.03 12.96c.14 0 .282-.026.42-.082l2.4-.969a1.121 1.121 0 0 0-.839-2.078l-2.4.969a1.121 1.121 0 0 0 .42 2.16zm-6.3-5.815a1.121 1.121 0 0 0 1.47-.593l1.012-2.383a1.12 1.12 0 0 0-2.063-.877l-1.012 2.383a1.12 1.12 0 0 0 .593 1.47zm-6.708 1.661c-4.043 1.632-6.004 6.248-4.372 10.29 1.241 3.076 4.21 4.947 7.34 4.947a7.87 7.87 0 0 0 2.95-.575c4.042-1.632 6.003-6.248 4.371-10.29-1.631-4.042-6.247-6.004-10.29-4.372zM18.1 21.39a5.67 5.67 0 0 1-7.373-3.132 5.67 5.67 0 0 1 3.133-7.373 5.63 5.63 0 0 1 2.113-.412c2.242 0 4.37 1.34 5.26 3.544A5.671 5.671 0 0 1 18.1 21.39z"/></svg>