<svg width="90" height="97" viewBox="0 0 90 97" fill="none" xmlns="http://www.w3.org/2000/svg">
<path fill-rule="evenodd" clip-rule="evenodd" d="M7 21C7 11.6112 24.0132 4 45 4C65.9868 4 83 11.6112 83 21L82.7742 20.8307C82.8714 21.4523 82.9199 22.0836 82.9199 22.7246C82.9199 23.7012 82.7572 24.6452 82.4316 25.5566C82.1061 26.4355 81.6341 27.2168 81.0156 27.9004C80.3971 28.5514 79.6322 29.0885 78.7207 29.5117C77.8092 29.9023 76.7676 30.0977 75.5957 30.0977C74.5215 30.0977 73.5449 29.9186 72.666 29.5605C71.7871 29.2025 71.0221 28.7142 70.3711 28.0957C69.7526 27.4772 69.2643 26.7448 68.9062 25.8984C68.5807 25.0521 68.418 24.1243 68.418 23.1152C68.418 21.9759 68.6133 20.9668 69.0039 20.0879C69.3945 19.1764 69.9154 18.4277 70.5664 17.8418C71.25 17.2233 72.0475 16.7676 72.959 16.4746C73.8704 16.1491 74.847 15.9863 75.8887 15.9863V15.791C75.6934 15.5632 75.3027 15.2051 74.7168 14.7168C74.1309 14.196 73.3171 13.6914 72.2754 13.2031C71.2337 12.6823 69.9479 12.2428 68.418 11.8848C66.888 11.4941 65.0814 11.2988 62.998 11.2988C60.6543 11.2988 58.5872 11.5755 56.7969 12.1289C55.0391 12.6823 53.5579 13.4635 52.3535 14.4727C52.0017 14.7674 51.6749 15.0802 51.373 15.4111V30.0013C52.4453 31.1903 53.9765 32.4269 55.9668 33.7109C58.0176 35.013 60.7682 36.4128 64.2188 37.9102C68.1901 39.7331 71.543 41.4421 74.2773 43.0371C77.0443 44.6322 79.2904 46.3249 81.0156 48.1152C82.7409 49.9056 83.9779 51.9238 84.7266 54.1699C85.5078 56.3835 85.8984 59.0365 85.8984 62.1289C85.8984 64.4727 85.4264 66.8164 84.4824 69.1602C83.5384 71.5039 82.1061 73.6035 80.1855 75.459C78.2975 77.3145 75.905 78.8281 73.0078 80C70.1432 81.1393 66.7741 81.709 62.9004 81.709C58.6035 81.709 54.9902 81.3021 52.0605 80.4883C51.2353 80.2682 50.4553 80.0288 49.7205 79.77C48.7693 82.8352 47.6112 85.2055 46.2461 86.8809C44.8138 88.6387 43.1211 90.0547 41.168 91.1289C39.2474 92.2357 37.5221 92.9355 35.9922 93.2285C34.4948 93.5215 32.9648 93.668 31.4023 93.668C27.9193 93.668 24.9733 92.8379 22.5645 91.1777C20.1881 89.5176 19 87.1901 19 84.1953C19 83.0004 19.2437 81.9029 19.7311 80.903C18.7347 80.6579 17.7879 80.3569 16.8906 80C13.9935 78.8281 11.6009 77.3145 9.71289 75.459C7.79232 73.6035 6.36003 71.5039 5.41602 69.1602C4.472 66.8164 4 64.4727 4 62.1289C4 59.0365 4.39062 56.3835 5.17188 54.1699C5.92057 51.9238 7.15755 49.9056 8.88281 48.1152C10.6081 46.3249 12.8542 44.6322 15.6211 43.0371C18.3555 41.4421 21.7083 39.7331 25.6797 37.9102C29.1302 36.4128 31.8809 35.013 33.9316 33.7109C35.9499 32.4089 37.4961 31.1556 38.5703 29.9512C38.6748 29.8309 38.7757 29.7109 38.873 29.5913V15.8137C38.4791 15.3315 38.0364 14.8844 37.5449 14.4727C36.3405 13.4635 34.8594 12.6823 33.1016 12.1289C31.3112 11.5755 29.2441 11.2988 26.9004 11.2988C24.8171 11.2988 23.0104 11.4941 21.4805 11.8848C19.9505 12.2428 18.6647 12.6823 17.623 13.2031C16.5814 13.6914 15.7676 14.196 15.1816 14.7168C14.5957 15.2051 14.2051 15.5632 14.0098 15.791V15.9863C15.0514 15.9863 16.028 16.1491 16.9395 16.4746C17.8509 16.7676 18.6484 17.2233 19.332 17.8418C19.9831 18.4277 20.5039 19.1764 20.8945 20.0879C21.2852 20.9668 21.4805 21.9759 21.4805 23.1152C21.4805 24.1243 21.3177 25.0521 20.9922 25.8984C20.6341 26.7448 20.1458 27.4772 19.5273 28.0957C18.8763 28.7142 18.1113 29.2025 17.2324 29.5605C16.3535 29.9186 15.377 30.0977 14.3027 30.0977C13.1309 30.0977 12.0892 29.9023 11.1777 29.5117C10.2663 29.0885 9.5013 28.5514 8.88281 27.9004C8.26432 27.2168 7.79232 26.4355 7.4668 25.5566C7.14128 24.6452 6.97852 23.7012 6.97852 22.7246C6.97852 22.1019 7.02435 21.4884 7.116 20.884L7 21ZM32.7109 49.873C35.0703 48.8721 37.1244 47.8014 38.873 46.6608V78.2871C38.873 80.2728 38.7591 82.0143 38.5312 83.5117C38.3359 85.0091 38.043 86.1973 37.6523 87.0762C37.2617 87.9876 36.8548 88.7201 36.4316 89.2734C36.041 89.8268 35.5527 90.2174 34.9668 90.4453C34.3809 90.6732 33.8926 90.8197 33.502 90.8848C33.1439 90.9499 32.7044 90.9824 32.1836 90.9824C30.6862 90.9824 29.7259 90.6732 29.3027 90.0547L29.1562 89.8594C30.2956 89.2734 31.1908 88.362 31.8418 87.125C32.5254 85.888 32.8672 84.7324 32.8672 83.6582C32.8672 81.8027 32.265 80.224 31.0605 78.9219C29.8561 77.6198 28.1634 76.9688 25.9824 76.9688C24.4451 76.9688 23.1182 77.3712 22.0016 78.176C20.0751 77.6559 18.3715 76.913 16.8906 75.9473C15.3607 74.9707 14.1237 73.7826 13.1797 72.3828C12.2357 70.9831 11.7637 69.4043 11.7637 67.6465C11.7637 66.1491 12.0404 64.7493 12.5938 63.4473C13.1471 62.1452 14.1888 60.8268 15.7188 59.4922C17.2487 58.125 19.3809 56.6764 22.1152 55.1465C24.8171 53.584 28.349 51.8262 32.7109 49.873ZM51.373 46.8841V67.8867C51.373 71.2055 51.081 74.2039 50.4968 76.8819C50.7872 77.0098 51.0969 77.1377 51.4258 77.2656C52.6302 77.7214 54.0951 78.1283 55.8203 78.4863C57.5781 78.8119 59.6452 78.9746 62.0215 78.9746C63.9746 78.9746 65.9115 78.7142 67.832 78.1934C69.7852 77.6725 71.5104 76.9238 73.0078 75.9473C74.5378 74.9707 75.7747 73.7826 76.7188 72.3828C77.6628 70.9831 78.1348 69.4043 78.1348 67.6465C78.1348 66.1491 77.8581 64.7493 77.3047 63.4473C76.7513 62.1452 75.7096 60.8268 74.1797 59.4922C72.6497 58.125 70.5176 56.6764 67.7832 55.1465C65.0814 53.584 61.5495 51.8262 57.1875 49.873C54.9827 48.9377 53.0446 47.9414 51.373 46.8841Z" fill="black"/>
</svg>
